# xmcd
#
# Track frame offsets:
#	150
#	18303
#	35923
#	47760
#	66403
#	87013
#	103003
#	119735
#	134828
#	154118
#	167715
#	181140
#	204578
#	222663
#
# Disc length: 3205 seconds
#
# Revision: 0
# Processed by: cddbd v1.5.2PL0 Copyright (c) Steve Scherf et al.
# Submitted via: EasyCDDAExtractor 10.0.3.1
#
DISCID=d50c830e
DTITLE=DOROTA MARCZYK - SEKRET
DYEAR=1900
DGENRE=
TTITLE0=Tego Żal
TTITLE1=Zapomnienie Da Nam Czas
TTITLE2=Słowa, Słowa, Słowa
TTITLE3=Chyba Można
TTITLE4=Czasem Ja, Czasem Ty
TTITLE5=Miłość, To Nie Musisz Być Ty
TTITLE6=Będę Jak Będziesz Ty
TTITLE7=Halo Czy To Ty
TTITLE8=Jak Z Tobą Być Sobą
TTITLE9=Do Twoich Ust
TTITLE10=Słowa, Słowa, Słowa - BRASS MIX
TTITLE11=Będę Jak Będziesz Ty - FLOOR MIX
TTITLE12=Miłość To Nie Musisz Być Ty - ADULT MIX
TTITLE13=Tego Żal - FELEK MIX
EXTD=
EXTT0=
EXTT1=
EXTT2=
EXTT3=
EXTT4=
EXTT5=
EXTT6=
EXTT7=
EXTT8=
EXTT9=
EXTT10=
EXTT11=
EXTT12=
EXTT13=
PLAYORDER=
